<svg xmlns="http://www.w3.org/2000/svg" xmlns:xlink="http://www.w3.org/1999/xlink" width="100%" height="100%" fill-rule="evenodd" stroke-linecap="round" stroke-linejoin="round" stroke-miterlimit="1.5" clip-rule="evenodd" version="1.1" viewBox="0 0 502 304" xml:space="preserve"><g id="Input-Diagram"><g><path d="M71.445,103.213l4.304,0l0,12.588l3.996,0l-6.148,6.148l-6.148,-6.148l3.996,0l0,-12.588Z"/><g><text x="60.505" y="279" font-family="'ArialMT', 'Arial', sans-serif" font-size="18" transform="matrix(1,0,0,1,-6,-207)">child</text><text x="47.501" y="300.23" font-family="'ArialMT', 'Arial', sans-serif" font-size="18" transform="matrix(1,0,0,1,-6,-207)">selector</text></g></g><g><path fill="#df002d" d="M177.039,211.489l-10.085,-0.151l0.612,-40.853l-9.364,-0.141l14.622,-14.191l14.192,14.623l-9.365,-0.14l-0.612,40.853Z"/><path fill="#fff" stroke="#df002d" stroke-width="1" d="M244.694,214.06c0,-1.137 -0.923,-2.06 -2.06,-2.06l-133.88,0c-1.137,0 -2.06,0.923 -2.06,2.06l0,81.88c0,1.137 0.923,2.06 2.06,2.06l133.88,0c1.137,0 2.06,-0.923 2.06,-2.06l0,-81.88Z"/><g><text x="39.962" y="279" font-family="'ArialMT', 'Arial', sans-serif" font-size="20" transform="matrix(1,0,0,1,95.5434,-32.5102)">@Input()</text><text x="19.552" y="300.23" font-family="'ArialMT', 'Arial', sans-serif" font-size="20" transform="matrix(1,0,0,1,95.5434,-32.5102)">property from</text><text x="58.448" y="321.46" font-family="'ArialMT', 'Arial', sans-serif" font-size="20" transform="matrix(1,0,0,1,95.5434,-32.5102)">child</text></g><g><rect width="74" height="33" x="137.114" y="189.938" fill="#fff" stroke="#df002d" stroke-width="1"/><text x="149.229" y="212.534" font-family="'ArialMT', 'Arial', sans-serif" font-size="20">target</text></g></g><g><path fill="#3345cc" d="M265.001,74.973l10.251,0.023l-0.077,35.114l9.519,0.021l-14.676,14.612l-14.612,-14.676l9.519,0.021l0.076,-35.115Z"/><path fill="#fff" stroke="#3345cc" stroke-width="1" d="M341.287,32.263c0,-0.833 -0.676,-1.51 -1.509,-1.51l-133.982,0c-0.833,0 -1.509,0.677 -1.509,1.51l0,59.981c0,0.833 0.676,1.509 1.509,1.509l133.982,0c0.833,0 1.509,-0.676 1.509,-1.509l0,-59.981Z"/><g id="source"><rect width="74" height="33" x="236.42" y="5.938" fill="#fff" stroke="#3345cc" stroke-width="1"/><text x="243.535" y="28.534" font-family="'ArialMT', 'Arial', sans-serif" font-size="20">source</text></g><g><text x="19.552" y="279" font-family="'ArialMT', 'Arial', sans-serif" font-size="20" transform="matrix(1,0,0,1,193.035,-217.181)">property from</text><text x="50.66" y="300.23" font-family="'ArialMT', 'Arial', sans-serif" font-size="20" transform="matrix(1,0,0,1,193.035,-217.181)">parent</text></g></g><g><text x="0" y="10.592" font-family="'ArialMT', 'Arial', sans-serif" font-size="14.787" transform="matrix(1.3525,0,0,1.3525,1,129.629)">&lt;app-item-detail [</text><text x="114.66" y="10.592" fill="#df002d" font-family="'ArialMT', 'Arial', sans-serif" font-size="14.787" transform="matrix(1.3525,0,0,1.3525,1,129.629)">item</text><text x="142.596" y="10.592" font-family="'ArialMT', 'Arial', sans-serif" font-size="14.787" transform="matrix(1.3525,0,0,1.3525,1,129.629)">]=&quot;</text><text x="160.589" y="10.592" fill="#3345cc" font-family="'ArialMT', 'Arial', sans-serif" font-size="14.787" transform="matrix(1.3525,0,0,1.3525,1,129.629)">currentItem</text><text x="235.371" y="10.592" font-family="'ArialMT', 'Arial', sans-serif" font-size="14.787" transform="matrix(1.3525,0,0,1.3525,1,129.629)">&quot;&gt;&lt;/app-item-detail&gt;</text></g></g></svg>